<?xml version="1.0" encoding="utf-8"?>
<!-- Generator: Adobe Illustrator 27.6.1, SVG Export Plug-In . SVG Version: 6.00 Build 0)  -->
<svg version="1.1" id="Layer_1" xmlns="http://www.w3.org/2000/svg" xmlns:xlink="http://www.w3.org/1999/xlink" x="0px" y="0px"
	 viewBox="0 0 100 100" style="enable-background:new 0 0 100 100;" xml:space="preserve">
<style type="text/css">
	.st0{fill:#262626;}
	.st1{fill:#ECECEC;}
	.st2{fill:#E3E3E3;}
	.st3{fill:#DADADA;}
	.st4{fill:#F0F0F0;}
</style>
<path d="M66.01,99.92c-7.87,0-15.74,0-23.61,0c-0.07-0.06-0.13-0.12-0.2-0.18c0.06-0.29,0.16-0.57,0.16-0.86
	c0.01-7.45,0.01-14.9,0-22.35c0-0.11-0.03-0.22-0.06-0.39c-3.58,0-7.15,0-10.82,0c0,0.44,0,0.86,0,1.27
	c0,7.11-0.02,14.21,0.02,21.32c0.01,1.03-0.29,1.26-1.28,1.25c-7.14-0.04-14.29-0.02-21.43-0.02c-0.37,0-0.74,0-1.17,0
	c0-33.32,0-66.55,0-99.87C7.9,0.05,8.18,0,8.47,0c18.99,0,37.98,0,56.97,0c0.19,0,0.38,0.02,0.57,0.03c0.07,0.06,0.13,0.12,0.2,0.18
	c0.01,0.3,0.04,0.61,0.04,0.91c0,32.56,0,65.13,0,97.69c0,0.3-0.02,0.61-0.04,0.91C66.14,99.8,66.08,99.86,66.01,99.92z
	 M24.73,17.36c0.07-0.06,0.13-0.12,0.2-0.18c0-3.54,0-7.07,0-10.57c-3.64,0-7.17,0-10.74,0c0,3.57,0,7.07,0,10.57
	c0.07,0.06,0.15,0.12,0.22,0.19C17.85,17.36,21.29,17.36,24.73,17.36z M24.93,41.49c-0.07-0.06-0.13-0.12-0.2-0.18
	c-3.44,0-6.88,0-10.32,0c-0.07,0.06-0.15,0.12-0.22,0.18c0,3.54,0,7.08,0,10.59c3.63,0,7.17,0,10.74,0
	C24.93,48.51,24.93,45,24.93,41.49z M42.34,58.92c-0.06-0.07-0.12-0.14-0.18-0.21c-3.53,0-7.06,0-10.6,0c0,3.65,0,7.18,0,10.74
	c3.58,0,7.09,0,10.6,0c0.06-0.07,0.12-0.15,0.18-0.22C42.34,65.8,42.34,62.36,42.34,58.92z M31.84,17.36c3.49,0,6.99,0,10.47,0
	c0-3.66,0-7.2,0-10.74c-3.62,0-7.18,0-10.82,0c0,1.72-0.02,3.36,0,5c0.02,1.9,0.08,3.8,0.12,5.69
	C31.69,17.33,31.77,17.35,31.84,17.36z M42.33,23.97c-3.64,0-7.19,0-10.74,0c0,3.65,0,7.21,0,10.76c3.62,0,7.16,0,10.74,0
	C42.33,31.13,42.33,27.59,42.33,23.97z M59.7,23.95c-3.67,0-7.2,0-10.77,0c0,3.62,0,7.19,0,10.75c3.63,0,7.19,0,10.77,0
	C59.7,31.09,59.7,27.55,59.7,23.95z M59.7,17.36c0-3.63,0-7.17,0-10.76c-3.62,0-7.19,0-10.78,0c0,3.6,0,7.16,0,10.76
	C52.53,17.36,56.06,17.36,59.7,17.36z M24.94,23.95c-3.66,0-7.19,0-10.72,0c0,3.63,0,7.2,0,10.77c3.62,0,7.15,0,10.72,0
	C24.94,31.11,24.94,27.57,24.94,23.95z M48.93,58.72c0,3.67,0,7.2,0,10.7c3.64,0,7.21,0,10.75,0c0-3.62,0-7.16,0-10.7
	C56.06,58.72,52.52,58.72,48.93,58.72z M31.55,41.3c0,3.64,0,7.18,0,10.77c3.61,0,7.18,0,10.74,0c0-3.63,0-7.2,0-10.77
	C38.69,41.3,35.18,41.3,31.55,41.3z M48.94,41.27c0,3.69,0,7.25,0,10.81c3.62,0,7.16,0,10.81,0c0-3.45,0.01-6.84-0.03-10.23
	c0-0.2-0.49-0.55-0.75-0.56C55.65,41.26,52.33,41.27,48.94,41.27z M24.91,69.46c0-3.61,0-7.17,0-10.7c-3.63,0-7.19,0-10.7,0
	c0,3.62,0,7.15,0,10.7C17.81,69.46,21.35,69.46,24.91,69.46z"/>
<path d="M68.48,19.6c7.95,0,15.84,0,23.86,0c0,0.46,0,0.87,0,1.28c0,25.87-0.01,51.74,0.02,77.61c0,1.13-0.22,1.5-1.43,1.49
	c-7.07-0.06-14.14-0.03-21.21-0.03c-0.41,0-0.83,0-1.24,0C68.48,73.1,68.48,46.37,68.48,19.6z M75.19,78.23
	c-0.07,0.06-0.14,0.12-0.2,0.18c0,3.53,0,7.07,0,10.57c3.63,0,7.18,0,10.74,0c0-3.58,0-7.08,0-10.58c-0.08-0.06-0.15-0.12-0.23-0.18
	C82.07,78.23,78.63,78.23,75.19,78.23z M75.19,54.29c3.44,0,6.88,0,10.32,0c0.06-0.06,0.13-0.12,0.19-0.19c0-3.53,0-7.07,0-10.57
	c-3.6,0-7.14,0-10.71,0c0,3.56,0,7.07,0,10.57C75.06,54.16,75.12,54.23,75.19,54.29z M85.74,60.88c-3.64,0-7.17,0-10.72,0
	c0,3.63,0,7.2,0,10.78c3.6,0,7.14,0,10.72,0C85.74,68.05,85.74,64.51,85.74,60.88z M74.99,36.87c3.63,0,7.17,0,10.72,0
	c0-3.61,0-7.17,0-10.73c-3.61,0-7.14,0-10.72,0C74.99,29.73,74.99,33.26,74.99,36.87z"/>
<path class="st0" d="M66.21,0.21c-0.07-0.06-0.13-0.12-0.2-0.18C66.08,0.09,66.14,0.15,66.21,0.21z"/>
<path class="st0" d="M42.2,99.73c0.07,0.06,0.13,0.12,0.2,0.18C42.33,99.86,42.27,99.79,42.2,99.73z"/>
<path class="st0" d="M66.01,99.92c0.07-0.06,0.13-0.12,0.2-0.18C66.14,99.8,66.08,99.86,66.01,99.92z"/>
<path class="st1" d="M31.62,17.32c0.07,0.02,0.15,0.03,0.22,0.05C31.77,17.35,31.69,17.33,31.62,17.32z"/>
<path class="st1" d="M24.73,17.36c0.07-0.06,0.13-0.12,0.2-0.18C24.87,17.24,24.8,17.3,24.73,17.36z"/>
<path class="st2" d="M14.42,41.31c-0.07,0.06-0.15,0.12-0.22,0.18C14.27,41.43,14.34,41.37,14.42,41.31z"/>
<path class="st2" d="M24.93,41.49c-0.07-0.06-0.13-0.12-0.2-0.18C24.8,41.37,24.87,41.43,24.93,41.49z"/>
<path class="st1" d="M14.19,17.18c0.07,0.06,0.15,0.12,0.22,0.19C14.34,17.3,14.27,17.24,14.19,17.18z"/>
<path class="st3" d="M42.34,58.92c-0.06-0.07-0.12-0.14-0.18-0.21C42.22,58.78,42.28,58.85,42.34,58.92z"/>
<path class="st3" d="M42.16,69.45c0.06-0.07,0.12-0.15,0.18-0.22C42.28,69.31,42.22,69.38,42.16,69.45z"/>
<path class="st4" d="M74.99,54.1c0.07,0.06,0.13,0.12,0.2,0.19C75.12,54.23,75.06,54.16,74.99,54.1z"/>
<path class="st4" d="M85.51,54.29c0.06-0.06,0.13-0.12,0.19-0.19C85.64,54.16,85.57,54.23,85.51,54.29z"/>
<path class="st3" d="M75.19,78.23c-0.07,0.06-0.14,0.12-0.2,0.18C75.06,78.35,75.13,78.29,75.19,78.23z"/>
<path class="st3" d="M85.73,78.41c-0.08-0.06-0.15-0.12-0.23-0.18C85.58,78.29,85.66,78.35,85.73,78.41z"/>
</svg>
